# Blender v2.75 (sub 0) OBJ File: 'GameAsset - Castle.blend'
# www.blender.org
mtllib GameAsset - Castle.mtl
o Wall.001_Плоскость.007
v -9.000000 6.998297 -0.000000
v -6.999909 6.998297 -0.000000
v -0.000091 6.998297 -0.000000
v -9.000000 0.497679 0.000000
v -6.999909 0.497679 0.000000
v -0.000091 0.497679 0.000000
v -9.000000 0.497679 0.500000
v -6.999909 7.983433 0.900000
v -9.000000 7.983433 0.900000
v -0.000091 7.983433 0.900000
v -6.999909 6.998297 0.700000
v -0.000091 6.998297 0.700000
v -9.000000 6.998297 0.700000
v -6.999909 0.497679 0.500000
v -0.000091 0.497679 0.500000
v -6.999909 7.490865 0.900000
v -0.000091 7.490865 0.900000
v -9.000000 7.490865 0.900000
v -9.000000 0.248840 0.500000
v -6.999909 0.248840 0.500000
v -0.000091 0.248840 0.500000
v -7.399928 6.499180 -0.000000
v 0.399910 6.499180 -0.000000
v -8.599982 6.499180 -0.000000
v -7.399928 6.499180 0.500000
v -8.599982 6.499180 0.500000
v -8.719988 1.398323 0.000000
v -8.719988 1.398323 0.500000
v -7.279922 1.398323 0.000000
v 0.299910 1.398323 0.000000
v -7.279922 1.398323 0.500000
v -7.199919 7.983433 1.123458
v -8.799991 7.983433 1.123458
v -7.199919 7.490865 1.123458
v -8.799991 7.490865 1.123458
v -8.799991 6.998297 0.923458
v -7.519933 6.499180 0.723458
v -7.199919 6.998297 0.923458
v -8.575981 1.398324 0.723459
v -8.799991 0.497679 0.723459
v -7.199919 0.248840 0.723459
v -7.199919 0.497679 0.723459
v -8.799991 0.248840 0.723459
v -8.479977 6.499180 0.723458
v -7.423928 1.398324 0.723459
v -7.423928 1.398323 0.000000
v -7.519933 6.499180 -0.000000
v -7.423928 1.398323 0.500000
v -7.519933 6.499180 0.500000
v -8.479977 6.499180 -0.000000
v -8.479977 6.499180 0.500000
v -8.575981 1.398323 0.000000
v -8.575981 1.398323 0.500000
v 0.520026 6.499180 -0.000000
v 0.424088 1.398323 0.000000
vt 0.686427 0.880797
vt 0.000217 0.880797
vt 0.000217 0.831781
vt 0.686427 0.831782
vt 0.011981 0.588561
vt 0.776621 0.588561
vt 0.737408 0.637490
vt 0.051197 0.637491
vt 0.000217 0.637925
vt 0.686428 0.637925
vt 0.686428 0.706547
vt 0.000217 0.706548
vt 0.941199 0.733473
vt 0.940399 0.787833
vt 0.911437 0.793464
vt 0.912881 0.742462
vt 0.000217 0.758665
vt 0.686428 0.758664
vt 0.686428 0.806952
vt 0.000217 0.806952
vt 0.196291 0.903137
vt 0.000217 0.903137
vt 0.019824 0.881231
vt 0.176684 0.881231
vt 0.732359 0.732083
vt 0.767410 0.675485
vt 0.789274 0.688512
vt 0.760258 0.741296
vt 0.000217 0.807386
vt 0.686427 0.807387
vt 0.710315 0.954336
vt 0.686862 0.865792
vt 0.734486 0.865956
vt 0.757940 0.954500
vt 0.940595 0.637925
vt 0.988451 0.681102
vt 0.906844 0.675333
vt 0.733724 0.841630
vt 0.763356 0.841592
vt 0.763741 0.865776
vt 0.837845 0.525563
vt 0.788829 0.525563
vt 0.788829 0.513798
vt 0.837845 0.513798
vt 0.686862 0.679498
vt 0.734912 0.637925
vt 0.923868 0.954372
vt 0.971134 0.954301
vt 0.967519 0.970515
vt 0.920253 0.970410
vt 0.023746 0.088510
vt 0.766818 0.088510
vt 0.051196 0.000217
vt 0.737408 0.000217
vt 0.884371 0.688075
vt 0.994809 0.866211
vt 0.947543 0.866378
vt 0.838153 0.501632
vt 0.837743 0.513365
vt 0.837743 0.501625
vt 0.837948 0.501627
vt 0.762124 0.791605
vt 0.915395 0.841158
vt 0.757343 0.840630
vt 0.918922 0.842102
vt 0.918322 0.866456
vt 0.897764 0.954247
vt 0.784246 0.954356
vt 0.948421 0.841996
vt 0.946556 0.837955
vt 0.726552 0.836916
vt 0.732651 0.786342
vt 0.777285 0.666431
vt 0.896157 0.665886
vt 0.911975 0.976252
vt 0.770077 0.976388
vt 0.999783 0.001139
vt 0.990373 0.501191
vt 0.941365 0.500268
vt 0.950776 0.000217
vt 0.837837 0.000217
vt 0.847250 0.500269
vt 0.798242 0.501191
vt 0.788829 0.001140
vt 0.710315 0.954703
vt 0.761521 0.970528
vt 0.713896 0.970731
vt 0.788829 0.513365
vt 0.788829 0.501625
vt 0.876513 0.977524
vt 0.841028 0.977558
vt 0.000217 0.588561
vt 0.009628 0.088510
vt 0.778989 0.088510
vt 0.788395 0.588561
vn 0.000000 1.000000 -0.000000
vn -0.000000 0.000000 1.000000
vn 0.000000 -1.000000 0.000000
vn 0.719200 -0.261400 0.643700
vn -0.628800 -0.634000 0.450200
vn -0.954900 0.296900 0.000000
vn 0.780300 -0.625400 0.000000
vn 0.000000 -0.376200 0.926500
vn -0.745100 0.000000 0.666900
vn -0.780300 -0.625400 0.000000
vn 0.628800 -0.634000 0.450200
vn 0.954900 0.296900 0.000000
vn 0.000000 -0.372000 0.928300
vn -0.773600 0.216500 0.595500
vn 0.745100 0.000000 0.666900
vn 0.773600 0.216500 0.595500
vn -0.719200 -0.261400 0.643700
vn 0.999800 0.018800 0.000000
vn -0.999800 0.018800 0.000000
vn 0.000000 0.000000 -1.000000
usemtl Wall_Material
s off
f 6/1/1 5/2/1 14/3/1 15/4/1
f 22/5/2 23/6/2 3/7/2 2/8/2
f 2/9/3 3/10/3 12/11/3 11/12/3
f 11/13/4 16/14/4 34/15/4 38/16/4
f 16/17/2 17/18/2 10/19/2 8/20/2
f 8/21/1 9/22/1 33/23/1 32/24/1
f 13/25/5 26/26/5 44/27/5 36/28/5
f 20/29/2 21/30/2 15/4/2 14/3/2
f 27/31/6 4/32/6 7/33/6 28/34/6
f 22/35/7 2/36/7 11/13/7 25/37/7
f 11/12/8 12/11/8 17/18/8 16/17/8
f 7/33/9 19/38/9 43/39/9 40/40/9
f 22/41/3 25/42/3 49/43/3 47/44/3
f 1/45/10 24/46/10 26/26/10 13/25/10
f 31/47/1 29/48/1 46/49/1 48/50/1
f 29/51/2 30/52/2 23/6/2 22/5/2
f 5/53/2 6/54/2 30/52/2 29/51/2
f 25/37/11 11/13/11 38/16/11 37/55/11
f 5/56/12 29/48/12 31/47/12 14/57/12
f 25/58/2 26/59/2 51/60/2 49/61/2
f 35/62/2 34/15/2 32/63/2 33/64/2
f 44/27/13 37/55/13 38/16/13 36/28/13
f 43/39/2 41/65/2 42/66/2 40/40/2
f 36/28/8 38/16/8 34/15/8 35/62/8
f 40/40/2 42/66/2 45/67/2 39/68/2
f 28/34/14 7/33/14 40/40/14 39/68/14
f 20/69/15 14/57/15 42/66/15 41/65/15
f 14/57/16 31/47/16 45/67/16 42/66/16
f 16/14/15 8/70/15 32/63/15 34/15/15
f 9/71/9 18/72/9 35/62/9 33/64/9
f 26/73/3 25/74/3 37/55/3 44/27/3
f 31/75/1 28/76/1 39/68/1 45/67/1
f 18/72/17 13/25/17 36/28/17 35/62/17
f 46/77/18 47/78/18 49/79/18 48/80/18
f 53/81/2 48/80/2 49/79/2 51/82/2
f 50/83/19 52/84/19 53/81/19 51/82/19
f 27/85/1 28/34/1 53/86/1 52/87/1
f 26/59/3 24/88/3 50/89/3 51/60/3
f 28/76/20 31/75/20 48/90/20 53/91/20
f 29/51/2 22/5/2 47/92/2 46/93/2
f 23/6/2 30/52/2 55/94/2 54/95/2
o Wall_Плоскость
v 0.000000 6.998297 -0.000000
v 2.000091 6.998297 -0.000000
v 8.999909 6.998297 -0.000000
v 0.000000 0.497679 0.000000
v 2.000091 0.497679 0.000000
v 8.999909 0.497679 0.000000
v 0.000000 0.497679 0.500000
v 2.000091 7.983433 0.900000
v 0.000000 7.983433 0.900000
v 8.999909 7.983433 0.900000
v 2.000091 6.998297 0.700000
v 8.999909 6.998297 0.700000
v 0.000000 6.998297 0.700000
v 2.000091 0.497679 0.500000
v 8.999909 0.497679 0.500000
v 2.000091 7.490865 0.900000
v 8.999909 7.490865 0.900000
v 0.000000 7.490865 0.900000
v 0.000000 0.248840 0.500000
v 2.000091 0.248840 0.500000
v 8.999909 0.248840 0.500000
v 1.600073 6.499180 -0.000000
v 9.399910 6.499180 -0.000000
v 0.400018 6.499180 -0.000000
v 1.600073 6.499180 0.500000
v 0.400018 6.499180 0.500000
v 0.280013 1.398323 0.000000
v 0.280013 1.398323 0.500000
v 1.720078 1.398323 0.000000
v 9.299910 1.398323 0.000000
v 1.720078 1.398323 0.500000
v 1.800081 7.983433 1.123458
v 0.200009 7.983433 1.123458
v 1.800081 7.490865 1.123458
v 0.200009 7.490865 1.123458
v 0.200009 6.998297 0.923458
v 1.480067 6.499180 0.723458
v 1.800081 6.998297 0.923458
v 0.424019 1.398324 0.723459
v 0.200009 0.497679 0.723459
v 1.800081 0.248840 0.723459
v 1.800081 0.497679 0.723459
v 0.200009 0.248840 0.723459
v 0.520023 6.499180 0.723458
v 1.576072 1.398324 0.723459
v 1.576072 1.398323 0.000000
v 1.480067 6.499180 -0.000000
v 1.576072 1.398323 0.500000
v 1.480067 6.499180 0.500000
v 0.520023 6.499180 -0.000000
v 0.520023 6.499180 0.500000
v 0.424019 1.398323 0.000000
v 0.424019 1.398323 0.500000
v 9.520026 6.499180 -0.000000
v 9.424088 1.398323 0.000000
vt 0.686427 0.880797
vt 0.000217 0.880797
vt 0.000217 0.831781
vt 0.686427 0.831782
vt 0.011981 0.588561
vt 0.776621 0.588561
vt 0.737408 0.637490
vt 0.051197 0.637491
vt 0.000217 0.637925
vt 0.686428 0.637925
vt 0.686428 0.706547
vt 0.000217 0.706548
vt 0.941199 0.733473
vt 0.940399 0.787833
vt 0.911437 0.793464
vt 0.912881 0.742462
vt 0.000217 0.758665
vt 0.686428 0.758664
vt 0.686428 0.806952
vt 0.000217 0.806952
vt 0.196291 0.903137
vt 0.000217 0.903137
vt 0.019824 0.881231
vt 0.176684 0.881231
vt 0.732359 0.732083
vt 0.767410 0.675485
vt 0.789274 0.688512
vt 0.760258 0.741296
vt 0.000217 0.807386
vt 0.686427 0.807387
vt 0.710315 0.954336
vt 0.686862 0.865792
vt 0.734486 0.865956
vt 0.757940 0.954500
vt 0.940595 0.637925
vt 0.988451 0.681102
vt 0.906844 0.675333
vt 0.733724 0.841630
vt 0.763356 0.841592
vt 0.763741 0.865776
vt 0.837845 0.525563
vt 0.788829 0.525563
vt 0.788829 0.513798
vt 0.837845 0.513798
vt 0.686862 0.679498
vt 0.734912 0.637925
vt 0.923868 0.954372
vt 0.971134 0.954301
vt 0.967519 0.970515
vt 0.920253 0.970410
vt 0.023746 0.088510
vt 0.766818 0.088510
vt 0.051196 0.000217
vt 0.737408 0.000217
vt 0.884371 0.688075
vt 0.994809 0.866211
vt 0.947543 0.866378
vt 0.838153 0.501632
vt 0.837743 0.513365
vt 0.837743 0.501625
vt 0.837948 0.501627
vt 0.762124 0.791605
vt 0.915395 0.841158
vt 0.757343 0.840630
vt 0.918922 0.842102
vt 0.918322 0.866456
vt 0.897764 0.954247
vt 0.784246 0.954356
vt 0.948421 0.841996
vt 0.946556 0.837955
vt 0.726552 0.836916
vt 0.732651 0.786342
vt 0.777285 0.666431
vt 0.896157 0.665886
vt 0.911975 0.976252
vt 0.770077 0.976388
vt 0.999783 0.001139
vt 0.990373 0.501191
vt 0.941365 0.500268
vt 0.950776 0.000217
vt 0.837837 0.000217
vt 0.847250 0.500269
vt 0.798242 0.501191
vt 0.788829 0.001140
vt 0.710315 0.954703
vt 0.761521 0.970528
vt 0.713896 0.970731
vt 0.788829 0.513365
vt 0.788829 0.501625
vt 0.876513 0.977524
vt 0.841028 0.977558
vt 0.000217 0.588561
vt 0.009628 0.088510
vt 0.778989 0.088510
vt 0.788395 0.588561
vn 0.000000 1.000000 -0.000000
vn -0.000000 0.000000 1.000000
vn 0.000000 -1.000000 0.000000
vn 0.719200 -0.261400 0.643700
vn -0.628800 -0.634000 0.450200
vn -0.954900 0.296900 0.000000
vn 0.780300 -0.625400 0.000000
vn 0.000000 -0.376200 0.926500
vn -0.745100 0.000000 0.666900
vn -0.780300 -0.625400 0.000000
vn 0.628800 -0.634000 0.450200
vn 0.954900 0.296900 0.000000
vn 0.000000 0.000000 -1.000000
vn 0.000000 -0.372000 0.928300
vn -0.773600 0.216500 0.595500
vn 0.745100 0.000000 0.666900
vn 0.773600 0.216500 0.595500
vn -0.719200 -0.261400 0.643700
vn 0.999800 0.018800 0.000000
vn -0.999800 0.018800 0.000000
usemtl Wall_Material
s off
f 61/96/21 60/97/21 69/98/21 70/99/21
f 77/100/22 78/101/22 58/102/22 57/103/22
f 57/104/23 58/105/23 67/106/23 66/107/23
f 66/108/24 71/109/24 89/110/24 93/111/24
f 71/112/22 72/113/22 65/114/22 63/115/22
f 63/116/21 64/117/21 88/118/21 87/119/21
f 68/120/25 81/121/25 99/122/25 91/123/25
f 75/124/22 76/125/22 70/99/22 69/98/22
f 82/126/26 59/127/26 62/128/26 83/129/26
f 77/130/27 57/131/27 66/108/27 80/132/27
f 66/107/28 67/106/28 72/113/28 71/112/28
f 62/128/29 74/133/29 98/134/29 95/135/29
f 77/136/23 80/137/23 104/138/23 102/139/23
f 56/140/30 79/141/30 81/121/30 68/120/30
f 86/142/21 84/143/21 101/144/21 103/145/21
f 84/146/22 85/147/22 78/101/22 77/100/22
f 60/148/22 61/149/22 85/147/22 84/146/22
f 80/132/31 66/108/31 93/111/31 92/150/31
f 60/151/32 84/143/32 86/142/32 69/152/32
f 80/153/33 81/154/33 106/155/33 104/156/33
f 90/157/22 89/110/22 87/158/22 88/159/22
f 99/122/34 92/150/34 93/111/34 91/123/34
f 98/134/22 96/160/22 97/161/22 95/135/22
f 91/123/28 93/111/28 89/110/28 90/157/28
f 95/135/22 97/161/22 100/162/22 94/163/22
f 83/129/35 62/128/35 95/135/35 94/163/35
f 75/164/36 69/152/36 97/161/36 96/160/36
f 69/152/37 86/142/37 100/162/37 97/161/37
f 71/109/36 63/165/36 87/158/36 89/110/36
f 64/166/29 73/167/29 90/157/29 88/159/29
f 81/168/23 80/169/23 92/150/23 99/122/23
f 86/170/21 83/171/21 94/163/21 100/162/21
f 73/167/38 68/120/38 91/123/38 90/157/38
f 101/172/39 102/173/39 104/174/39 103/175/39
f 108/176/22 103/175/22 104/174/22 106/177/22
f 105/178/40 107/179/40 108/176/40 106/177/40
f 82/180/21 83/129/21 108/181/21 107/182/21
f 81/154/23 79/183/23 105/184/23 106/155/23
f 83/171/22 86/170/22 103/185/22 108/186/22
f 84/146/22 77/100/22 102/187/22 101/188/22
f 78/101/22 85/147/22 110/189/22 109/190/22
